<svg width="22" height="22" viewBox="0 0 22 22" fill="none" xmlns="http://www.w3.org/2000/svg"><path d="M14.25 6l-7.04 6.5a2.042 2.042 0 00-.673 1.5c0 .563.242 1.102.673 1.5a2.399 2.399 0 001.625.621c.61 0 1.194-.223 1.625-.621L17.501 9c.862-.796 1.346-1.875 1.346-3s-.484-2.204-1.346-3c-.862-.796-2.031-1.243-3.25-1.243-1.22 0-2.388.447-3.25 1.243L3.959 9.5c-1.293 1.193-2.02 2.812-2.02 4.5 0 1.688.727 3.306 2.02 4.5 1.293 1.193 3.047 1.864 4.875 1.864 1.829 0 3.582-.67 4.875-1.864l7.042-6.5" stroke="#666" stroke-width="2" stroke-linecap="round" stroke-linejoin="round"/></svg>