<svg width="32" height="32" viewBox="0 0 32 32" fill="none" xmlns="http://www.w3.org/2000/svg"><path d="M31.5 16c0 8.56-6.94 15.5-15.5 15.5C7.44 31.5.5 24.56.5 16 .5 7.44 7.44.5 16 .5 24.56.5 31.5 7.44 31.5 16z" stroke="#000"/><path d="M19.823 8.51a2.137 2.137 0 00-1.3 1.948v2.05h-6.997a8.212 8.212 0 00-4.086 1.14c-1.393.835-2.628 2.344-2.628 4.43v4.561c0 .554.446.94.967.96.547.018 1.03-.408 1.03-.96 0-.807.75-1.586 1.3-2.032.866-.85 2.054-1.526 3.417-1.526h6.997v2.047c0 .895.579 1.641 1.3 1.94.72.298 1.661.18 2.294-.454l5.018-5.018a2.564 2.564 0 000-3.604l-5.018-5.018a2.13 2.13 0 00-2.294-.464zm5.896 6.891s.223.553 0 .776l-5.021 5.02c-.094.095-.177.004-.177-.07v-3.049a1 1 0 00-.992-1.005h-8.003c-1.963 0-3.583.936-4.716 2.013v-1.008c0-1.343.673-2.122 1.664-2.716.99-.594 2.306-.857 3.052-.857h8.003a.999.999 0 00.992-.995v-3.052c0-.14.177-.078.177-.078l5.02 5.021z" fill="#000"/></svg>